<svg xmlns="http://www.w3.org/2000/svg" version="1.1" xmlns:xlink="http://www.w3.org/1999/xlink" xmlns:svgjs="http://svgjs.dev/svgjs" viewBox="0 0 2400 800" opacity="0.47"><defs><linearGradient x1="50%" y1="0%" x2="50%" y2="100%" id="oooscillate-grad"><stop stop-color="hsl(206, 75%, 49%)" stop-opacity="1" offset="0%"></stop><stop stop-color="hsl(331, 90%, 56%)" stop-opacity="1" offset="100%"></stop></linearGradient></defs><g stroke-width="2" stroke="url(#oooscillate-grad)" fill="none" stroke-linecap="round"><path d="M 0 2442 Q 600 -100 1200 400 Q 1800 900 2400 2442" opacity="0.81"></path><path d="M 0 2420 Q 600 -100 1200 400 Q 1800 900 2400 2420" opacity="0.08"></path><path d="M 0 2398 Q 600 -100 1200 400 Q 1800 900 2400 2398" opacity="0.29"></path><path d="M 0 2376 Q 600 -100 1200 400 Q 1800 900 2400 2376" opacity="0.22"></path><path d="M 0 2354 Q 600 -100 1200 400 Q 1800 900 2400 2354" opacity="0.74"></path><path d="M 0 2332 Q 600 -100 1200 400 Q 1800 900 2400 2332" opacity="0.47"></path><path d="M 0 2310 Q 600 -100 1200 400 Q 1800 900 2400 2310" opacity="0.20"></path><path d="M 0 2288 Q 600 -100 1200 400 Q 1800 900 2400 2288" opacity="0.15"></path><path d="M 0 2266 Q 600 -100 1200 400 Q 1800 900 2400 2266" opacity="0.76"></path><path d="M 0 2244 Q 600 -100 1200 400 Q 1800 900 2400 2244" opacity="0.41"></path><path d="M 0 2222 Q 600 -100 1200 400 Q 1800 900 2400 2222" opacity="0.41"></path><path d="M 0 2200 Q 600 -100 1200 400 Q 1800 900 2400 2200" opacity="0.78"></path><path d="M 0 2178 Q 600 -100 1200 400 Q 1800 900 2400 2178" opacity="0.28"></path><path d="M 0 2156 Q 600 -100 1200 400 Q 1800 900 2400 2156" opacity="0.74"></path><path d="M 0 2134 Q 600 -100 1200 400 Q 1800 900 2400 2134" opacity="0.15"></path><path d="M 0 2112 Q 600 -100 1200 400 Q 1800 900 2400 2112" opacity="0.93"></path><path d="M 0 2090 Q 600 -100 1200 400 Q 1800 900 2400 2090" opacity="0.64"></path><path d="M 0 2068 Q 600 -100 1200 400 Q 1800 900 2400 2068" opacity="0.39"></path><path d="M 0 2046 Q 600 -100 1200 400 Q 1800 900 2400 2046" opacity="0.71"></path><path d="M 0 2024 Q 600 -100 1200 400 Q 1800 900 2400 2024" opacity="0.39"></path><path d="M 0 2002 Q 600 -100 1200 400 Q 1800 900 2400 2002" opacity="0.49"></path><path d="M 0 1980 Q 600 -100 1200 400 Q 1800 900 2400 1980" opacity="0.52"></path><path d="M 0 1958 Q 600 -100 1200 400 Q 1800 900 2400 1958" opacity="0.93"></path><path d="M 0 1936 Q 600 -100 1200 400 Q 1800 900 2400 1936" opacity="0.31"></path><path d="M 0 1914 Q 600 -100 1200 400 Q 1800 900 2400 1914" opacity="0.91"></path><path d="M 0 1892 Q 600 -100 1200 400 Q 1800 900 2400 1892" opacity="0.94"></path><path d="M 0 1870 Q 600 -100 1200 400 Q 1800 900 2400 1870" opacity="0.54"></path><path d="M 0 1848 Q 600 -100 1200 400 Q 1800 900 2400 1848" opacity="0.40"></path><path d="M 0 1826 Q 600 -100 1200 400 Q 1800 900 2400 1826" opacity="0.84"></path><path d="M 0 1804 Q 600 -100 1200 400 Q 1800 900 2400 1804" opacity="0.75"></path><path d="M 0 1782 Q 600 -100 1200 400 Q 1800 900 2400 1782" opacity="0.39"></path><path d="M 0 1760 Q 600 -100 1200 400 Q 1800 900 2400 1760" opacity="0.67"></path><path d="M 0 1738 Q 600 -100 1200 400 Q 1800 900 2400 1738" opacity="0.16"></path><path d="M 0 1716 Q 600 -100 1200 400 Q 1800 900 2400 1716" opacity="0.83"></path><path d="M 0 1694 Q 600 -100 1200 400 Q 1800 900 2400 1694" opacity="0.82"></path><path d="M 0 1672 Q 600 -100 1200 400 Q 1800 900 2400 1672" opacity="0.48"></path><path d="M 0 1650 Q 600 -100 1200 400 Q 1800 900 2400 1650" opacity="0.55"></path><path d="M 0 1628 Q 600 -100 1200 400 Q 1800 900 2400 1628" opacity="0.80"></path><path d="M 0 1606 Q 600 -100 1200 400 Q 1800 900 2400 1606" opacity="0.23"></path><path d="M 0 1584 Q 600 -100 1200 400 Q 1800 900 2400 1584" opacity="0.38"></path><path d="M 0 1562 Q 600 -100 1200 400 Q 1800 900 2400 1562" opacity="0.68"></path><path d="M 0 1540 Q 600 -100 1200 400 Q 1800 900 2400 1540" opacity="0.97"></path><path d="M 0 1518 Q 600 -100 1200 400 Q 1800 900 2400 1518" opacity="0.77"></path><path d="M 0 1496 Q 600 -100 1200 400 Q 1800 900 2400 1496" opacity="0.64"></path><path d="M 0 1474 Q 600 -100 1200 400 Q 1800 900 2400 1474" opacity="0.13"></path><path d="M 0 1452 Q 600 -100 1200 400 Q 1800 900 2400 1452" opacity="0.88"></path><path d="M 0 1430 Q 600 -100 1200 400 Q 1800 900 2400 1430" opacity="0.90"></path><path d="M 0 1408 Q 600 -100 1200 400 Q 1800 900 2400 1408" opacity="0.69"></path><path d="M 0 1386 Q 600 -100 1200 400 Q 1800 900 2400 1386" opacity="0.77"></path><path d="M 0 1364 Q 600 -100 1200 400 Q 1800 900 2400 1364" opacity="0.66"></path><path d="M 0 1342 Q 600 -100 1200 400 Q 1800 900 2400 1342" opacity="0.92"></path><path d="M 0 1320 Q 600 -100 1200 400 Q 1800 900 2400 1320" opacity="0.90"></path><path d="M 0 1298 Q 600 -100 1200 400 Q 1800 900 2400 1298" opacity="0.22"></path><path d="M 0 1276 Q 600 -100 1200 400 Q 1800 900 2400 1276" opacity="0.58"></path><path d="M 0 1254 Q 600 -100 1200 400 Q 1800 900 2400 1254" opacity="0.41"></path><path d="M 0 1232 Q 600 -100 1200 400 Q 1800 900 2400 1232" opacity="0.51"></path><path d="M 0 1210 Q 600 -100 1200 400 Q 1800 900 2400 1210" opacity="0.47"></path><path d="M 0 1188 Q 600 -100 1200 400 Q 1800 900 2400 1188" opacity="0.89"></path><path d="M 0 1166 Q 600 -100 1200 400 Q 1800 900 2400 1166" opacity="0.18"></path><path d="M 0 1144 Q 600 -100 1200 400 Q 1800 900 2400 1144" opacity="0.39"></path><path d="M 0 1122 Q 600 -100 1200 400 Q 1800 900 2400 1122" opacity="0.86"></path><path d="M 0 1100 Q 600 -100 1200 400 Q 1800 900 2400 1100" opacity="0.67"></path><path d="M 0 1078 Q 600 -100 1200 400 Q 1800 900 2400 1078" opacity="0.52"></path><path d="M 0 1056 Q 600 -100 1200 400 Q 1800 900 2400 1056" opacity="0.34"></path><path d="M 0 1034 Q 600 -100 1200 400 Q 1800 900 2400 1034" opacity="0.72"></path><path d="M 0 1012 Q 600 -100 1200 400 Q 1800 900 2400 1012" opacity="0.35"></path><path d="M 0 990 Q 600 -100 1200 400 Q 1800 900 2400 990" opacity="0.59"></path><path d="M 0 968 Q 600 -100 1200 400 Q 1800 900 2400 968" opacity="0.46"></path><path d="M 0 946 Q 600 -100 1200 400 Q 1800 900 2400 946" opacity="0.58"></path><path d="M 0 924 Q 600 -100 1200 400 Q 1800 900 2400 924" opacity="0.36"></path><path d="M 0 902 Q 600 -100 1200 400 Q 1800 900 2400 902" opacity="0.58"></path><path d="M 0 880 Q 600 -100 1200 400 Q 1800 900 2400 880" opacity="0.81"></path><path d="M 0 858 Q 600 -100 1200 400 Q 1800 900 2400 858" opacity="0.74"></path><path d="M 0 836 Q 600 -100 1200 400 Q 1800 900 2400 836" opacity="0.80"></path><path d="M 0 814 Q 600 -100 1200 400 Q 1800 900 2400 814" opacity="0.88"></path><path d="M 0 792 Q 600 -100 1200 400 Q 1800 900 2400 792" opacity="0.64"></path><path d="M 0 770 Q 600 -100 1200 400 Q 1800 900 2400 770" opacity="0.80"></path><path d="M 0 748 Q 600 -100 1200 400 Q 1800 900 2400 748" opacity="0.84"></path><path d="M 0 726 Q 600 -100 1200 400 Q 1800 900 2400 726" opacity="0.78"></path><path d="M 0 704 Q 600 -100 1200 400 Q 1800 900 2400 704" opacity="0.55"></path><path d="M 0 682 Q 600 -100 1200 400 Q 1800 900 2400 682" opacity="0.23"></path><path d="M 0 660 Q 600 -100 1200 400 Q 1800 900 2400 660" opacity="0.77"></path><path d="M 0 638 Q 600 -100 1200 400 Q 1800 900 2400 638" opacity="0.12"></path><path d="M 0 616 Q 600 -100 1200 400 Q 1800 900 2400 616" opacity="0.82"></path><path d="M 0 594 Q 600 -100 1200 400 Q 1800 900 2400 594" opacity="0.58"></path><path d="M 0 572 Q 600 -100 1200 400 Q 1800 900 2400 572" opacity="0.70"></path><path d="M 0 550 Q 600 -100 1200 400 Q 1800 900 2400 550" opacity="0.83"></path><path d="M 0 528 Q 600 -100 1200 400 Q 1800 900 2400 528" opacity="0.63"></path><path d="M 0 506 Q 600 -100 1200 400 Q 1800 900 2400 506" opacity="0.49"></path><path d="M 0 484 Q 600 -100 1200 400 Q 1800 900 2400 484" opacity="0.25"></path><path d="M 0 462 Q 600 -100 1200 400 Q 1800 900 2400 462" opacity="0.71"></path><path d="M 0 440 Q 600 -100 1200 400 Q 1800 900 2400 440" opacity="0.18"></path><path d="M 0 418 Q 600 -100 1200 400 Q 1800 900 2400 418" opacity="0.60"></path><path d="M 0 396 Q 600 -100 1200 400 Q 1800 900 2400 396" opacity="0.32"></path><path d="M 0 374 Q 600 -100 1200 400 Q 1800 900 2400 374" opacity="0.47"></path><path d="M 0 352 Q 600 -100 1200 400 Q 1800 900 2400 352" opacity="0.42"></path><path d="M 0 330 Q 600 -100 1200 400 Q 1800 900 2400 330" opacity="0.49"></path><path d="M 0 308 Q 600 -100 1200 400 Q 1800 900 2400 308" opacity="0.35"></path><path d="M 0 286 Q 600 -100 1200 400 Q 1800 900 2400 286" opacity="0.42"></path><path d="M 0 264 Q 600 -100 1200 400 Q 1800 900 2400 264" opacity="0.78"></path><path d="M 0 242 Q 600 -100 1200 400 Q 1800 900 2400 242" opacity="0.71"></path><path d="M 0 220 Q 600 -100 1200 400 Q 1800 900 2400 220" opacity="0.13"></path><path d="M 0 198 Q 600 -100 1200 400 Q 1800 900 2400 198" opacity="0.74"></path><path d="M 0 176 Q 600 -100 1200 400 Q 1800 900 2400 176" opacity="0.47"></path><path d="M 0 154 Q 600 -100 1200 400 Q 1800 900 2400 154" opacity="0.30"></path><path d="M 0 132 Q 600 -100 1200 400 Q 1800 900 2400 132" opacity="0.47"></path><path d="M 0 110 Q 600 -100 1200 400 Q 1800 900 2400 110" opacity="0.96"></path><path d="M 0 88 Q 600 -100 1200 400 Q 1800 900 2400 88" opacity="0.53"></path><path d="M 0 66 Q 600 -100 1200 400 Q 1800 900 2400 66" opacity="0.40"></path><path d="M 0 44 Q 600 -100 1200 400 Q 1800 900 2400 44" opacity="0.43"></path></g></svg>